<?xml version="1.0" encoding="UTF-8" standalone="no"?>
<!-- Created with Inkscape (http://www.inkscape.org/) -->

<svg
   width="64"
   height="64"
   viewBox="0 0 64 64"
   version="1.1"
   id="svg5"
   sodipodi:docname="drawing.svg"
   inkscape:version="1.2.1 (9c6d41e410, 2022-07-14)"
   xmlns:inkscape="http://www.inkscape.org/namespaces/inkscape"
   xmlns:sodipodi="http://sodipodi.sourceforge.net/DTD/sodipodi-0.dtd"
   xmlns="http://www.w3.org/2000/svg"
   xmlns:svg="http://www.w3.org/2000/svg">
  <sodipodi:namedview
     id="namedview7"
     pagecolor="#505050"
     bordercolor="#eeeeee"
     borderopacity="1"
     inkscape:showpageshadow="0"
     inkscape:pageopacity="0"
     inkscape:pagecheckerboard="0"
     inkscape:deskcolor="#505050"
     inkscape:document-units="mm"
     showgrid="false"
     borderlayer="false"
     inkscape:zoom="7.3129978"
     inkscape:cx="22.904424"
     inkscape:cy="32.271307"
     inkscape:window-width="1366"
     inkscape:window-height="748"
     inkscape:window-x="0"
     inkscape:window-y="20"
     inkscape:window-maximized="1"
     inkscape:current-layer="layer1" />
  <defs
     id="defs2" />
  <g
     inkscape:label="Layer 1"
     inkscape:groupmode="layer"
     id="layer1">
    <path
       id="path788"
       style="fill:#ffffff;fill-opacity:1;stroke:none;stroke-width:2.26806;stroke-linecap:round;stroke-miterlimit:0;stroke-opacity:1;paint-order:fill markers stroke"
       d="M 32 0 A 32 32 0 0 0 11.650391 7.4277344 L 52.486328 7.4277344 A 32 32 0 0 0 32 0 z M 11.507812 7.5488281 A 32 32 0 0 0 0 32 A 32 32 0 0 0 10 55.162109 L 29.654297 32.466797 L 11.507812 7.5488281 z M 52.755859 7.6582031 L 53.576172 18.988281 L 51.400391 18.988281 C 49.978466 11.965874 47.386135 10.335938 37.683594 10.335938 L 23.546875 10.335938 L 37.097656 28.990234 L 19.449219 49.277344 L 41.78125 49.277344 C 51.483791 49.277344 53.993359 48.071157 56.669922 42.396484 L 58.845703 42.396484 L 54.472656 54.759766 A 32 32 0 0 0 64 32 A 32 32 0 0 0 52.755859 7.6582031 z M 10.003906 55.166016 A 32 32 0 0 0 32 64 A 32 32 0 0 0 53.996094 55.166016 L 10.003906 55.166016 z " />
  </g>
</svg>
